<?xml version="1.0" encoding="UTF-8" standalone="no"?>
<svg
   xmlns:dc="http://purl.org/dc/elements/1.1/"
   xmlns:cc="http://creativecommons.org/ns#"
   xmlns:rdf="http://www.w3.org/1999/02/22-rdf-syntax-ns#"
   xmlns:svg="http://www.w3.org/2000/svg"
   xmlns="http://www.w3.org/2000/svg"
   xmlns:xlink="http://www.w3.org/1999/xlink"
   xmlns:sodipodi="http://sodipodi.sourceforge.net/DTD/sodipodi-0.dtd"
   xmlns:inkscape="http://www.inkscape.org/namespaces/inkscape"
   id="svg2"
   viewBox="0 0 379.99999 379.99999"
   version="1.0"
   sodipodi:docname="doer.svg"
   width="380"
   height="380"
   inkscape:version="0.92.1 r15371">
  <sodipodi:namedview
     pagecolor="#ffffff"
     bordercolor="#666666"
     borderopacity="1"
     objecttolerance="10"
     gridtolerance="10"
     guidetolerance="10"
     inkscape:pageopacity="0"
     inkscape:pageshadow="2"
     inkscape:window-width="1920"
     inkscape:window-height="1135"
     id="namedview107"
     showgrid="false"
     inkscape:zoom="0.93881771"
     inkscape:cx="185.91"
     inkscape:cy="125.69"
     inkscape:window-x="0"
     inkscape:window-y="0"
     inkscape:window-maximized="1"
     inkscape:current-layer="svg2" />
  <defs
     id="defs4">
    <linearGradient
       id="linearGradient3909">
      <stop
         id="stop3911"
         stop-color="#fff"
         offset="0" />
      <stop
         id="stop3913"
         stop-color="#fff"
         stop-opacity="0"
         offset="1" />
    </linearGradient>
    <filter
       id="filter3306">
      <feGaussianBlur
         id="feGaussianBlur3308"
         stdDeviation="0.45432864" />
    </filter>
    <filter
       id="filter3338">
      <feGaussianBlur
         id="feGaussianBlur3340"
         stdDeviation="1.164769" />
    </filter>
    <filter
       id="filter3368">
      <feGaussianBlur
         id="feGaussianBlur3370"
         stdDeviation="0.45521695" />
    </filter>
    <filter
       id="filter3386">
      <feGaussianBlur
         id="feGaussianBlur3388"
         stdDeviation="0.29326565" />
    </filter>
    <filter
       id="filter3446">
      <feGaussianBlur
         id="feGaussianBlur3448"
         stdDeviation="1.2920772" />
    </filter>
    <filter
       id="filter3620">
      <feGaussianBlur
         id="feGaussianBlur3622"
         stdDeviation="0.44745231" />
    </filter>
    <filter
       id="filter3624">
      <feGaussianBlur
         id="feGaussianBlur3626"
         stdDeviation="0.44745231" />
    </filter>
    <filter
       id="filter3628">
      <feGaussianBlur
         id="feGaussianBlur3630"
         stdDeviation="0.44745231" />
    </filter>
    <filter
       id="filter3632">
      <feGaussianBlur
         id="feGaussianBlur3634"
         stdDeviation="0.44745231" />
    </filter>
    <filter
       id="filter3689">
      <feGaussianBlur
         id="feGaussianBlur3691"
         stdDeviation="0.70704578" />
    </filter>
    <filter
       id="filter3789">
      <feGaussianBlur
         id="feGaussianBlur3791"
         stdDeviation="0.53827809" />
    </filter>
    <filter
       id="filter3809">
      <feGaussianBlur
         id="feGaussianBlur3811"
         stdDeviation="2.8759927" />
    </filter>
    <filter
       id="filter3893">
      <feGaussianBlur
         id="feGaussianBlur3895"
         stdDeviation="0.054193902" />
    </filter>
    <filter
       id="filter3969">
      <feGaussianBlur
         id="feGaussianBlur3971"
         stdDeviation="0.17283008" />
    </filter>
    <filter
       id="filter3999">
      <feGaussianBlur
         id="feGaussianBlur4001"
         stdDeviation="0.29272706" />
    </filter>
    <filter
       id="filter4090">
      <feGaussianBlur
         id="feGaussianBlur4092"
         stdDeviation="0.42715268" />
    </filter>
    <filter
       id="filter4156">
      <feGaussianBlur
         id="feGaussianBlur4158"
         stdDeviation="0.32667698" />
    </filter>
    <filter
       id="filter4350">
      <feGaussianBlur
         id="feGaussianBlur4352"
         stdDeviation="0.74932791" />
    </filter>
    <filter
       id="filter4447">
      <feGaussianBlur
         id="feGaussianBlur4449"
         stdDeviation="2.1990765" />
    </filter>
    <linearGradient
       id="linearGradient4538"
       y2="399.22"
       gradientUnits="userSpaceOnUse"
       x2="270.20001"
       y1="493.25"
       x1="251.49001">
      <stop
         id="stop2436"
         stop-color="#1a1a1a"
         offset="0" />
      <stop
         id="stop2438"
         stop-color="#5b5b5b"
         offset="1" />
    </linearGradient>
    <linearGradient
       id="linearGradient4540"
       y2="548.48999"
       gradientUnits="userSpaceOnUse"
       x2="230.17"
       y1="477.14001"
       x1="309.17999">
      <stop
         id="stop3452"
         offset="0" />
      <stop
         id="stop3454"
         stop-opacity="0"
         offset="1" />
    </linearGradient>
    <linearGradient
       id="linearGradient4542"
       y2="474.72"
       gradientUnits="userSpaceOnUse"
       x2="239.03999"
       y1="426.76001"
       x1="314.01001">
      <stop
         id="stop3460"
         stop-color="#7f7f7f"
         offset="0" />
      <stop
         id="stop3462"
         stop-color="#333"
         offset="1" />
    </linearGradient>
    <linearGradient
       id="linearGradient4544"
       y2="441.73999"
       gradientUnits="userSpaceOnUse"
       x2="651.34003"
       y1="500.17999"
       x1="586.59003">
      <stop
         id="stop3823"
         stop-color="#585245"
         offset="0" />
      <stop
         id="stop3825"
         stop-color="#414141"
         offset="1" />
    </linearGradient>
    <linearGradient
       id="linearGradient4546"
       y2="534.58002"
       xlink:href="#linearGradient3909"
       gradientUnits="userSpaceOnUse"
       x2="560.53003"
       gradientTransform="translate(-0.08668,0.04334)"
       y1="539.10999"
       x1="555.65997" />
    <linearGradient
       id="linearGradient4548"
       y2="534.58002"
       xlink:href="#linearGradient3909"
       gradientUnits="userSpaceOnUse"
       x2="560.53003"
       gradientTransform="matrix(0.065126,-0.99788,-0.99788,-0.065126,1058.3,1129.7)"
       y1="539.10999"
       x1="555.65997" />
    <linearGradient
       id="linearGradient4550"
       y2="473.01999"
       gradientUnits="userSpaceOnUse"
       x2="618.27002"
       y1="463.95001"
       x1="610.28998">
      <stop
         id="stop3933"
         stop-color="#fff"
         offset="0" />
      <stop
         id="stop3935"
         stop-color="#fff"
         stop-opacity="0"
         offset="1" />
    </linearGradient>
    <linearGradient
       id="linearGradient4552"
       y2="478.13"
       gradientUnits="userSpaceOnUse"
       x2="626.27002"
       y1="487.16"
       x1="632.40002">
      <stop
         id="stop4005"
         stop-color="#fff"
         offset="0" />
      <stop
         id="stop4007"
         stop-color="#fff"
         stop-opacity="0"
         offset="1" />
    </linearGradient>
    <linearGradient
       id="linearGradient4554"
       y2="452.26001"
       gradientUnits="userSpaceOnUse"
       x2="597.20001"
       gradientTransform="translate(0.72581)"
       y1="434.12"
       x1="610.98999">
      <stop
         id="stop4036"
         stop-color="#272527"
         offset="0" />
      <stop
         id="stop4038"
         stop-color="#646458"
         offset="1" />
    </linearGradient>
    <linearGradient
       id="linearGradient4556"
       y2="454.35001"
       gradientUnits="userSpaceOnUse"
       x2="590.5"
       y1="428.54999"
       x1="617.01001">
      <stop
         id="stop4162"
         stop-color="#fff"
         offset="0" />
      <stop
         id="stop4164"
         stop-color="#fff"
         stop-opacity="0"
         offset="1" />
    </linearGradient>
  </defs>
  <g
     id="layer2"
     transform="translate(-132.77,-188.14)">
    <g
       id="g4504">
      <g
         id="g4451"
         transform="matrix(1.5566,-0.13063,0.13063,1.5566,72.575,-312.3)">
        <path
           id="path4373"
           d="M 144.85,392.55 6.57,447.05 c -0.0026,0 -3.09,3.07 -2.4088,7.16 0.6812,4.08 0.3673,5.83 3.9375,9.5 3.6583,3.76 3.3433,3.15 3.3433,3.15 l 66.125,53.13 c 0.173,1.06 0.436,1.9 0.875,2.34 0.553,0.65 1.982,2.04 3.625,3.41 2.507,2.64 6.433,6.28 8.25,5.34 -0.415,-0.25 -0.693,-0.74 -0.875,-1.56 l 13.498,10.87 c 0,0 2.49,2.13 7.5,3.38 2.09,0.52 5.9,0.25 9.31,-1.91 2.08,-1.31 115.41,-94.81 115.41,-94.81 2.1,-1.17 2.73,-4.19 0.59,-4.87 l -2.21,-0.69 -0.22,-7.78 -75.41,60.22 -35.41,28.21 c -0.8,0.49 -5.11,3.02 -8,3.16 -2.53,0.13 -6.57,-0.97 -13.03,-5.91 -0.03,-0.02 -2.33,-1.75 -2.496,-1.87 l 0.343,-0.31 c 1.933,1.44 6.373,4.78 6.373,4.78 0,0 4.41,2.72 7.81,3.06 3.41,0.34 8.86,-3.07 10.22,-4.09 1.37,-1.03 111.38,-89.22 111.38,-89.22 2.7,-2.15 2.84,-3.74 -0.31,-5.81 -0.48,-0.19 -5.79,-2.36 -13.41,-5.44 0.32,-0.14 0.55,-0.22 0.66,-0.22 0.53,0 -0.02,-0.25 -1,-0.59 0.28,-0.13 0.5,-0.22 0.59,-0.22 1.87,0 -9.84,-4.22 -9.84,-4.22 0,0 -1.34,0.8 -1.41,0.84 -20.49,-8.13 -48.93,-19.02 -65.53,-23.53 z M 29.82,465.64 c 14.522,10.66 32.109,23.72 47.594,35.25 -0.013,0.15 -0.026,0.29 -0.031,0.44 C 58.86,487.43 45.907,477.71 29.82,465.64 Z"
           transform="matrix(0.96706,0,0,0.97828,3.972,8.1724)"
           inkscape:connector-curvature="0"
           style="opacity:0.93376962;fill-rule:evenodd;filter:url(#filter4447)" />
        <g
           id="g3642"
           transform="translate(-125.39,-9.7725)">
          <path
             id="path2430"
             d="m 270.79,391.91 -138.29,54.5 c 0,0 -3.07,3.06 -2.38,7.15 0.68,4.09 0.36,5.84 3.93,9.51 3.66,3.76 3.33,3.14 3.33,3.14 l 91.51,73.52 c 0,0 2.49,2.16 7.5,3.41 2.09,0.52 5.89,0.23 9.31,-1.93 2.07,-1.32 115.39,-94.81 115.39,-94.81 2.1,-1.18 2.75,-4.18 0.61,-4.87 l -5.07,-1.6 -113.09,90.61 h -10.56 l -98.78,-74.6 c 0,0 -2.72,-7.15 -0.68,-6.81 2.05,0.34 98.1,72.21 98.1,72.21 0,0 4.43,2.73 7.83,3.07 3.41,0.34 8.86,-3.07 10.22,-4.09 1.36,-1.02 111.38,-89.24 111.38,-89.24 2.7,-2.15 2.82,-3.72 -0.34,-5.79 -1.7,-0.68 -62.33,-25.89 -89.92,-33.38 z"
             inkscape:connector-curvature="0"
             style="fill:url(#linearGradient4538);fill-rule:evenodd;stroke:#333333;stroke-width:1px" />
          <path
             id="path2432"
             d="m 131.82,453.27 c 0,0 0.12,3.16 3.42,8.66 1.61,2.69 23.93,20 46.67,37.71 16.66,12.28 32.19,26.11 49.1,38.07 3.37,2.14 5.42,2.29 8.29,2.37 3.92,0.11 7.26,-3.39 9.74,-5.31 1.08,-0.84 110.5,-91.53 110.5,-91.53 l -0.28,-10.17 -110.5,88.23 c 0,0 -5.12,3.18 -8.3,3.34 -2.53,0.13 -6.6,-0.96 -13.06,-5.89 -1.4,-1.07 -91.8,-68.87 -91.8,-68.87 -1.94,-2.04 -4,-1.66 -3.78,3.39 z"
             inkscape:connector-curvature="0"
             style="fill:#f5eac5;fill-rule:evenodd" />
          <path
             id="path2446"
             d="m 358.91,433.45 -112.47,89.66 -0.89,14.41 113.2,-94.55 z"
             inkscape:connector-curvature="0"
             style="opacity:0.52898996;fill:url(#linearGradient4540);fill-rule:evenodd;filter:url(#filter3338)" />
          <path
             id="path2444"
             d="m 233.69,526.11 -0.46,11.41 c 0,0 4.11,3.65 8.22,1.37 4.1,-2.28 3.65,-4.11 3.65,-4.11 v -10.04 c 0,0 -4.11,2.28 -5.94,2.28 -1.82,0 -6.38,-2.28 -5.47,-0.91 z"
             inkscape:connector-curvature="0"
             style="opacity:0.15942;fill-rule:evenodd;filter:url(#filter3306)" />
          <path
             id="path3342"
             d="m 135.95,450.75 c 0,0 -1.23,-0.87 -1.58,1.23 -0.35,2.1 0.53,6.48 4.56,11.21 0.88,1.04 57.11,48.18 57.11,48.18 l -58.51,-46.78 c 0,0 -4.34,-4.29 -4.73,-5.08 -1.23,-2.45 -2.11,-7.18 -1.41,-8.58 0.7,-1.4 0.88,-2.28 2.11,-2.1 1.22,0.17 2.62,1.92 2.45,1.92 z"
             inkscape:connector-curvature="0"
             style="opacity:0.29710005;fill-rule:evenodd;filter:url(#filter3368)" />
          <path
             id="path3372"
             d="m 132.12,448.81 c 1.16,-1.39 3.11,0.32 4.85,1.33 l 94.29,69.42 c 0,0 3.65,2.92 8.59,3.21 2.08,0.13 4.4,-0.21 6.76,-1.44 7.98,-4.14 115.19,-92.15 115.19,-92.15 0,0 0.78,-2.61 -0.91,-3.14"
             inkscape:connector-curvature="0"
             style="opacity:0.20651999;fill:none;stroke:#ffffff;stroke-width:1px;filter:url(#filter3386)" />
          <path
             id="path3412"
             d="m 206.01,522.89 c 1.39,1.64 7.77,8.82 10.24,7.55 -0.76,-0.47 -1.09,-1.64 -1.13,-4.4 0.02,-3.63 -0.2,-16.75 -0.2,-16.75 0,0 -0.47,-3.27 1.87,-4.68 2.34,-1.4 59.26,-40.8 75.77,-51.83 16.55,-11.07 53.54,-33.16 55.41,-33.16 1.87,0 -9.02,-3 -9.02,-3 0,0 -49.15,29.95 -65.06,38.85 -15.91,8.89 -66.46,41.65 -66.46,41.65 0,0 -3.48,2.44 -2.82,6.92 0.48,6.61 -0.74,16.69 1.4,18.85 z"
             inkscape:connector-curvature="0"
             style="fill-rule:evenodd;filter:url(#filter3446)" />
          <path
             id="path3398"
             d="m 204.39,521.68 c 1.4,1.64 8.18,8.01 10.65,6.74 -0.76,-0.47 -1.09,-1.63 -1.13,-4.39 0.02,-3.63 -0.2,-16.75 -0.2,-16.75 0,0 -0.47,-3.28 1.87,-4.68 2.34,-1.41 53.17,-35.13 69.72,-46.2 17.72,-11.84 60.39,-37.58 62.27,-37.58 1.87,0 -9.83,-4.21 -9.83,-4.21 0,0 -44.31,26.72 -65.06,38.84 -15.74,9.19 -66.46,41.66 -66.46,41.66 0,0 -3.48,2.44 -2.82,6.92 0.48,6.61 -1.15,17.5 0.99,19.65 z"
             inkscape:connector-curvature="0"
             style="fill:url(#linearGradient4542);fill-rule:evenodd" />
          <g
             id="g3636"
             style="opacity:0.38767999;fill:none;stroke:#1a1a1a;stroke-width:0.5">
            <path
               id="path3466"
               d="m 337.86,416.15 c 0,0 -42.82,25.8 -63.57,37.92 -15.74,9.19 -66.46,41.65 -66.46,41.65 0,0 -3.48,2.44 -2.82,6.92 0.48,6.61 -1.15,17.5 0.99,19.66"
               inkscape:connector-curvature="0"
               style="filter:url(#filter3620)" />
            <path
               id="path3470"
               d="m 339.99,417.12 c 0,0 -42.81,26.04 -63.56,38.16 -15.74,9.19 -66.46,41.66 -66.46,41.66 0,0 -3.48,2.44 -2.82,6.92 0.48,6.61 -1.15,17.49 0.99,19.65"
               inkscape:connector-curvature="0"
               style="filter:url(#filter3624)" />
            <path
               id="path3472"
               d="m 342.15,417.65 c 0,0 -40.01,24.69 -60.76,36.8 -15.75,9.2 -68.9,44.33 -68.9,44.33 0,0 -3.47,2.44 -2.81,6.92 0.48,6.62 -1.15,17.5 0.99,19.66"
               inkscape:connector-curvature="0"
               style="filter:url(#filter3628)" />
            <path
               id="path3474"
               d="m 343.77,418.77 c 0,0 -38.47,23.81 -59.22,35.93 -15.74,9.19 -69.87,45.54 -69.87,45.54 0,0 -3.47,2.44 -2.82,6.92 0.49,6.61 -1.14,17.5 1,19.66"
               inkscape:connector-curvature="0"
               style="filter:url(#filter3632)" />
          </g>
        </g>
        <g
           id="g4354"
           style="fill-rule:evenodd">
          <path
             id="path4201"
             d="m 241,430.97 c -1.8,0.22 -4.67,2.47 -8.53,8.25 -0.78,1.17 -6.28,8.57 -11.22,15.1 -1.21,0.34 -2.06,0.78 -2.06,0.78 l -5.19,7.18 c -0.27,0.6 -0.81,1.24 -0.59,1.72 0,0 0.23,-0.05 0.37,-0.09 -0.06,0.07 -0.24,0.27 -0.28,0.31 0,0 -21.72,33.23 -21.84,39.19 -0.7,1.74 -1.85,4.97 -1.85,4.97 l 3.28,-2.88 c 0,0 1.33,-0.7 2.85,-1.93 11.16,-9.67 19,-22.31 27.44,-34.04 0.01,-0.02 0.39,-0.6 0.46,-0.71 0,0.07 -0.01,0.15 -0.03,0.21 -0.69,2.12 6.44,-8.53 6.44,-8.53 0,0 0.13,-0.56 -0.03,-1.4 1.37,-2.14 2.78,-4.41 4.22,-6.78 0.09,-0.04 0.16,-0.08 0.25,-0.13 0.97,-0.08 1.12,-0.75 1.12,-0.75 0,0 6.27,-11.1 6.94,-12.19 0.14,-0.22 0.3,-0.67 0.41,-1.12 0.2,-0.48 0.44,-1.11 0.03,-1.53 -0.07,-0.08 -0.22,-0.17 -0.35,-0.25 0.58,-1.76 0.56,-3.41 0,-4.41 -0.05,-0.43 -0.15,-0.71 -0.37,-0.56 -0.37,-0.33 -0.86,-0.48 -1.47,-0.41 z"
             inkscape:connector-curvature="0"
             style="filter:url(#filter4350)" />
          <g
             id="g4168"
             transform="matrix(0.62051,-0.14206,0.13265,0.5794,-196.79,269.91)">
            <g
               id="g4011"
               transform="translate(-49.396,-8.5789)">
              <path
                 id="path3663"
                 d="m 606.99,476.84 c 0,0 -44.93,46.38 -47.2,56.11 -1.68,2.59 -4.56,7.45 -4.56,7.45 l 6.01,-3.52 c 0,0 2.28,-0.66 5.03,-2.12 20.48,-11.66 36.94,-29.43 53.97,-45.5 0.61,-0.74 30.9,-30.51 40.97,-46.26 5.32,-8.33 1.72,-18.37 -16.42,-0.02 -2.79,2.83 -34.9,32 -37.8,33.86 z"
                 inkscape:connector-curvature="0"
                 style="fill:url(#linearGradient4544);stroke:#000000;stroke-width:0.40000001;filter:url(#filter3893)" />
              <path
                 id="path3671"
                 d="m 563.59,535.27 3.94,-1.43 c 0,0 12.7,-8.23 14.49,-9.66 1.78,-1.43 29.33,-26.47 29.33,-26.47 l 26.29,-26.65 22.72,-26.29 c 0,0 2.86,-5.19 3.22,-6.26 0.35,-1.07 -0.36,-3.22 -0.36,-3.22 0,0 -11.27,15.2 -13.59,17.53 -2.33,2.32 -38.82,39.17 -38.82,39.17 l -48.29,43.46 z"
                 transform="matrix(0.95999,0,0,0.95959,24.529,17.612)"
                 inkscape:connector-curvature="0"
                 style="fill:#ffffff;filter:url(#filter3809)" />
              <path
                 id="path3669"
                 d="m 563.06,534.56 c 0,0 18.78,-14.49 53.48,-46.69 1.39,-1.29 27.18,-27.9 28.08,-29.15 0.89,-1.25 17.35,-19.32 17.88,-20.75 0.54,-1.43 1.26,-4.47 0.36,-4.11 -0.89,0.36 -2.32,3.04 -2.68,3.75 -0.36,0.72 -32.91,36.49 -34.52,37.57 -1.61,1.07 -62.25,59.38 -62.6,59.38 z"
                 inkscape:connector-curvature="0"
                 style="fill:#3d3727;filter:url(#filter3789)" />
              <path
                 id="path3667"
                 d="m 658.24,434.44 c 0,0 -52.82,51.4 -55.65,54.24 -2.84,2.84 -41.18,44.3 -41.18,44.3 l 0.57,1.42 c 0,0 57.36,-56.79 61.62,-61.05 4.26,-4.26 35.21,-36.92 35.21,-36.92 0,0 1.71,-1.99 -0.57,-1.99 z"
                 inkscape:connector-curvature="0"
                 style="opacity:0.64855;fill:#ffffff;filter:url(#filter3689)" />
              <path
                 id="path3665"
                 d="m 606.89,476.47 c 0,0 6.59,-0.56 10.27,2.64 1.42,1.23 5.23,7.12 3.91,9.49 -1.8,3.22 12.85,-11.52 12.85,-11.52 0,0 2.02,-4.58 -2.56,-10.24 -4.26,-5.25 -12.5,-2.81 -12.5,-2.81 l -10.44,9.83 c -0.62,0.87 -1.69,1.74 -1.53,2.61 z"
                 inkscape:connector-curvature="0"
                 style="fill:#1a1a1a;stroke:#1a1a1a;stroke-width:1px" />
              <path
                 id="path3897"
                 d="m 559.71,533.8 -4.07,6.13 4.85,-4.45 z"
                 inkscape:connector-curvature="0"
                 style="fill:url(#linearGradient4546)" />
              <path
                 id="path3917"
                 d="m 562.1,536.38 -6.39,3.66 4.76,-4.55 z"
                 inkscape:connector-curvature="0"
                 style="fill:url(#linearGradient4548)" />
              <path
                 id="path3929"
                 d="m 619.13,464.61 -9.49,9.17 c 0,0 -1.07,1.4 -0.97,1.83 0.11,0.43 1.95,0.11 2.59,0.22 0.65,0.1 4.21,1.18 4.21,1.18 0,0 -0.22,-0.75 -0.33,-1.51 -0.1,-0.75 -0.32,-2.15 3.35,-5.17 3.66,-3.02 5.5,-4.64 5.93,-4.75 0.43,-0.11 2.05,-0.43 3.02,-0.22 0.97,0.22 0.11,-0.97 -0.86,-1.18 -0.97,-0.22 -5.61,-0.54 -7.45,0.43 z"
                 inkscape:connector-curvature="0"
                 style="fill:url(#linearGradient4550);filter:url(#filter3969)" />
              <path
                 id="path3973"
                 d="m 621.62,483.16 c 0,0 1.29,2.48 0.86,3.88 -0.43,1.4 11.11,-10.14 11.11,-10.14 0,0 0.43,-3.77 -0.22,-4.85 -0.65,-1.08 0.54,3.02 -5.61,8.31 -3.2,2.75 -5.82,2.8 -6.14,2.8 z"
                 inkscape:connector-curvature="0"
                 style="fill:url(#linearGradient4552);filter:url(#filter3999)" />
            </g>
            <path
               id="path4042"
               d="m 606.34,432.23 c 0,0 1.31,-1.16 0.58,0.87 -0.72,2.03 -16.11,19.02 -15.97,20.76 0.15,1.74 0.15,2.47 1.75,2.76 1.59,0.29 2.75,-0.73 2.75,-0.73 0,0 15.97,-18.14 16.41,-18.87 0.43,-0.73 1.45,-1.89 0.87,-2.9 -0.58,-1.02 -3.34,-3.34 -3.34,-3.34 0,0 -2.32,0 -3.05,1.45 z"
               inkscape:connector-curvature="0"
               style="opacity:0.73188022;filter:url(#filter4090)" />
            <path
               id="path4032"
               d="m 607.79,432.08 c 0,0 2.18,-1.84 1.46,0.2 -0.73,2.03 -14.57,18.33 -15.97,20.27 -1.03,1.41 -0.73,3.63 0.87,3.92 1.6,0.29 2.08,-0.77 2.08,-0.77 0,0 13.48,-15.87 14.88,-17.4 0.58,-0.63 1.65,-2.57 1.46,-3.68 -0.2,-1.16 -1.73,-3.99 -1.73,-3.99 0,0 -2.32,0 -3.05,1.45 z"
               inkscape:connector-curvature="0"
               style="fill:url(#linearGradient4554);stroke:#3a3636;stroke-width:0.30000001" />
            <path
               id="path4096"
               d="m 609.07,433.92 -15.87,19.99 c 0,0 -0.29,0.85 0.42,1.56 0.71,0.71 0.57,-1.42 0.57,-1.42 0,0 14.74,-19.99 16.44,-19.56 1.71,0.42 1.24,2.24 1.24,2.24 l -0.14,-2.12 c -0.85,-0.85 -1.38,-2.96 -1.38,-2.96 l -1.28,1.28 z"
               inkscape:connector-curvature="0"
               style="opacity:0.40728;fill:url(#linearGradient4556);filter:url(#filter4156)" />
          </g>
        </g>
      </g>
    </g>
  </g>
  <metadata
     id="metadata104">
    <rdf:RDF>
      <cc:Work>
        <dc:format>image/svg+xml</dc:format>
        <dc:type
           rdf:resource="http://purl.org/dc/dcmitype/StillImage" />
        <cc:license
           rdf:resource="http://creativecommons.org/publicdomain/zero/1.0/" />
        <dc:publisher>
          <cc:Agent
             rdf:about="http://openclipart.org/">
            <dc:title>Openclipart</dc:title>
          </cc:Agent>
        </dc:publisher>
        <dc:title>Notebook</dc:title>
        <dc:date>2009-06-23T20:06:55</dc:date>
        <dc:description>clip art, clipart, editorial pick, education, how i did it, notebook, office, school, </dc:description>
        <dc:source>http://openclipart.org/detail/26776/notebook-by-minduka</dc:source>
        <dc:creator>
          <cc:Agent>
            <dc:title>Minduka</dc:title>
          </cc:Agent>
        </dc:creator>
        <dc:subject>
          <rdf:Bag>
            <rdf:li>clip art</rdf:li>
            <rdf:li>clipart</rdf:li>
            <rdf:li>editorial pick</rdf:li>
            <rdf:li>education</rdf:li>
            <rdf:li>how i did it</rdf:li>
            <rdf:li>notebook</rdf:li>
            <rdf:li>office</rdf:li>
            <rdf:li>school</rdf:li>
          </rdf:Bag>
        </dc:subject>
      </cc:Work>
      <cc:License
         rdf:about="http://creativecommons.org/publicdomain/zero/1.0/">
        <cc:permits
           rdf:resource="http://creativecommons.org/ns#Reproduction" />
        <cc:permits
           rdf:resource="http://creativecommons.org/ns#Distribution" />
        <cc:permits
           rdf:resource="http://creativecommons.org/ns#DerivativeWorks" />
      </cc:License>
    </rdf:RDF>
  </metadata>
</svg>
